<mxfile host="app.diagrams.net" modified="2023-08-29T02:01:33.690Z" agent="Mozilla/5.0 (Windows NT 10.0; Win64; x64) AppleWebKit/537.36 (KHTML, like Gecko) Chrome/115.0.0.0 Safari/537.36 Edg/115.0.1901.203" version="21.5.2" etag="9DWzZlqFXQC8WdLV0T_2" type="github">
  <diagram name="Page-1" id="RdpUsAipTTaOiK0rlmYo">
    <mxGraphModel>
      <root>
        <mxCell id="0" />
        <mxCell id="1" parent="0" />
      </root>
    </mxGraphModel>
  </diagram>
</mxfile>
